<?xml version="1.0" encoding="utf-8"?>
<!-- Generator: Adobe Illustrator 27.7.0, SVG Export Plug-In . SVG Version: 6.00 Build 0)  -->
<svg version="1.1" id="katman_1" xmlns="http://www.w3.org/2000/svg" xmlns:xlink="http://www.w3.org/1999/xlink" x="0px" y="0px"
	 viewBox="0 0 300 300" style="enable-background:new 0 0 300 300;" xml:space="preserve">
<style type="text/css">
	.st0{fill:#EE6D11;}
</style>
<g>
	<g>
		<path class="st0" d="M234.12,266.18c-1.2,0-2.4-0.5-3.27-1.49c-1.54-1.77-1.2-4.51,0.47-6.16c21.91-21.69,35.16-45.39,39.4-70.42
			c3.21-18.94-0.67-38.77-10.91-55.83c-21.28-35.44-52.28-34.22-68.87-30.33c-3.68,0.86-7.27,2.3-10.68,4.27
			c-1.89,1.1-3.69,2.17-5.38,3.22c-0.02,0.01-0.03,0.03-0.03,0.05c0.19,10.11-1.97,31.19-21.46,43.33c-1.93,1.2-4.17,1.92-6.42,1.7
			c-4-0.39-7.24-2.97-8.54-6.57c-3.38-9.38-0.9-24.11,27.35-42.95c0.02-0.01,0.03-0.04,0.03-0.07
			c-9.39-34.32-38.28-32.62-54.74-28.51c-2.16,0.54-4.28,1.32-6.32,2.34c0.05,0.45,0.1,0.9,0.15,1.35
			c0.64,3.45,4.53,30.8-30.1,39.03c-4.4,1.05-8.99-0.88-11.18-4.68c-5.85-10.15,4.53-23.33,31.75-40.24
			c0.02-0.01,0.03-0.04,0.03-0.06c-3.84-24.98-12.81-41.71-26.7-49.79c-19.65-11.43-42.89-1.61-43.12-1.51
			c-2.2,0.95-4.74-0.06-5.69-2.25c-0.95-2.19,0.06-4.74,2.25-5.69c1.11-0.48,27.52-11.63,50.91,1.97
			c15.65,9.1,25.85,26.87,30.4,52.89c0.01,0.04,0.05,0.06,0.08,0.05c1.78-0.73,3.6-1.33,5.45-1.79c12.03-3,51.51-9.3,64.44,32.09
			c0.01,0.04,0.05,0.06,0.09,0.04c0.79-0.47,1.6-0.95,2.43-1.43c4.15-2.4,8.54-4.15,13.04-5.2c15.2-3.56,53.25-7.34,78.26,34.31
			c11.31,18.83,15.58,40.75,12.03,61.73c-4.5,26.58-19.05,52.64-42.1,75.38C236.32,265.76,235.22,266.18,234.12,266.18z M166,115.5
			c0-0.05-0.06-0.08-0.1-0.05c-21.15,15.39-20.79,25.52-19.33,29.56c0.19,0.52,0.59,0.73,0.81,0.81c0.25,0.09,0.63,0.14,1.03-0.1
			C161.5,137.79,165.16,124.68,166,115.5z M96.71,83.72c0-0.05-0.06-0.06-0.1-0.04c-29.36,18.91-25.68,26.15-25.49,26.46
			c0.29,0.5,0.99,0.74,1.68,0.58C96.57,105.07,97.26,89.31,96.71,83.72z"/>
	</g>
	<g>
		<g>
			<path class="st0" d="M200.26,280.88c7.65-14.26,14.9-30.44,19.86-45.75c1.82-5.6,9.69-5.7,11.57-0.11l6.73,20.05
				c0.45,1.35,1.36,2.49,2.57,3.24l17.99,11.09c5.01,3.09,3.14,10.74-2.73,11.24c-16.04,1.37-33.44,4.76-49.06,8.98
				C202.04,291.02,197.73,285.59,200.26,280.88z"/>
		</g>
	</g>
</g>
</svg>
